<svg id="Points" xmlns="http://www.w3.org/2000/svg" width="23.921" height="23.921" viewBox="0 0 23.921 23.921"><defs><style>.cls-1{fill:#fff;}</style></defs><title>PointSelectionIndicator</title><polyline class="cls-1" points="1.863 11.96 1.863 9.473 7.46 11.96 1.863 14.448 1.863 11.96"/><path class="cls-1" d="M267.96,256A11.96,11.96,0,1,1,256,244.04,11.96,11.96,0,0,1,267.96,256Zm-11.986-10.072A10.072,10.072,0,1,0,266.047,256,10.072,10.072,0,0,0,255.975,245.928Z" transform="translate(-244.04 -244.04)"/><polyline class="cls-1" points="22.054 11.96 22.054 14.448 16.457 11.96 22.054 9.473 22.054 11.96"/><polyline class="cls-1" points="11.96 1.881 14.448 1.881 11.96 7.478 9.473 1.881 11.96 1.881"/><polyline class="cls-1" points="11.96 22.04 9.473 22.04 11.96 16.443 14.448 22.04 11.96 22.04"/></svg>